<svg width="112" height="28" viewBox="0 0 112 28" fill="none" xmlns="http://www.w3.org/2000/svg">
<path d="M1.74617 27C1.50617 27 1.29017 26.916 1.09817 26.748C0.930172 26.556 0.846172 26.34 0.846172 26.1V2.7C0.846172 2.436 0.930172 2.22 1.09817 2.052C1.29017 1.884 1.50617 1.8 1.74617 1.8H11.1062C14.6342 1.8 17.3702 2.64 19.3142 4.32C21.2582 6 22.2782 8.436 22.3742 11.628C22.3982 12.324 22.4102 13.248 22.4102 14.4C22.4102 15.552 22.3982 16.464 22.3742 17.136C22.2542 20.472 21.2582 22.956 19.3862 24.588C17.5382 26.196 14.8382 27 11.2862 27H1.74617ZM11.1062 21.816C12.6902 21.816 13.8542 21.444 14.5982 20.7C15.3422 19.932 15.7382 18.72 15.7862 17.064C15.8342 16.368 15.8582 15.468 15.8582 14.364C15.8582 13.26 15.8342 12.372 15.7862 11.7C15.7382 10.092 15.3062 8.904 14.4902 8.136C13.6982 7.368 12.5102 6.984 10.9262 6.984H7.32617V21.816H11.1062ZM27.0837 5.58C26.8197 5.58 26.6037 5.496 26.4357 5.328C26.2677 5.16 26.1837 4.944 26.1837 4.68V1.44C26.1837 1.176 26.2677 0.959999 26.4357 0.791998C26.6037 0.623999 26.8197 0.539999 27.0837 0.539999H31.4037C31.6677 0.539999 31.8837 0.623999 32.0517 0.791998C32.2197 0.959999 32.3037 1.176 32.3037 1.44V4.68C32.3037 4.944 32.2197 5.16 32.0517 5.328C31.8837 5.496 31.6677 5.58 31.4037 5.58H27.0837ZM27.1197 27C26.8557 27 26.6397 26.916 26.4717 26.748C26.3037 26.58 26.2197 26.364 26.2197 26.1V9.18C26.2197 8.916 26.3037 8.7 26.4717 8.532C26.6397 8.364 26.8557 8.28 27.1197 8.28H31.3677C31.6317 8.28 31.8477 8.364 32.0157 8.532C32.1837 8.7 32.2677 8.916 32.2677 9.18V26.1C32.2677 26.34 32.1837 26.556 32.0157 26.748C31.8477 26.916 31.6317 27 31.3677 27H27.1197ZM37.4205 27C37.1565 27 36.9405 26.916 36.7725 26.748C36.6045 26.58 36.5205 26.364 36.5205 26.1V9.18C36.5205 8.916 36.6045 8.7 36.7725 8.532C36.9405 8.364 37.1565 8.28 37.4205 8.28H41.5605C41.8245 8.28 42.0405 8.364 42.2085 8.532C42.4005 8.7 42.4965 8.916 42.4965 9.18V10.548C43.1445 9.756 43.9725 9.12 44.9805 8.64C46.0125 8.16 47.1765 7.92 48.4725 7.92C50.5845 7.92 52.3005 8.64 53.6205 10.08C54.9405 11.496 55.6005 13.488 55.6005 16.056V26.1C55.6005 26.34 55.5165 26.556 55.3485 26.748C55.1805 26.916 54.9645 27 54.7005 27H50.1645C49.9245 27 49.7085 26.916 49.5165 26.748C49.3485 26.556 49.2645 26.34 49.2645 26.1V16.272C49.2645 15.144 48.9885 14.28 48.4365 13.68C47.8845 13.056 47.0925 12.744 46.0605 12.744C45.0525 12.744 44.2605 13.056 43.6845 13.68C43.1085 14.28 42.8205 15.144 42.8205 16.272V26.1C42.8205 26.34 42.7365 26.556 42.5685 26.748C42.4005 26.916 42.1845 27 41.9205 27H37.4205ZM66.6373 27.36C64.2853 27.36 62.4493 26.628 61.1293 25.164C59.8333 23.676 59.1253 21.588 59.0053 18.9L58.9693 17.64L59.0053 16.344C59.1013 13.752 59.8093 11.7 61.1293 10.188C62.4733 8.676 64.3093 7.92 66.6373 7.92C68.8213 7.92 70.5853 8.628 71.9293 10.044V2.34C71.9293 2.076 72.0133 1.86 72.1813 1.692C72.3493 1.524 72.5653 1.44 72.8293 1.44H77.2213C77.4853 1.44 77.7013 1.524 77.8693 1.692C78.0373 1.86 78.1213 2.076 78.1213 2.34V26.1C78.1213 26.34 78.0373 26.556 77.8693 26.748C77.7013 26.916 77.4853 27 77.2213 27H73.1533C72.9133 27 72.6973 26.916 72.5053 26.748C72.3373 26.556 72.2533 26.34 72.2533 26.1V24.948C70.9333 26.556 69.0613 27.36 66.6373 27.36ZM68.6173 22.536C69.6973 22.536 70.5013 22.2 71.0293 21.528C71.5573 20.832 71.8573 19.944 71.9293 18.864C71.9533 18.552 71.9653 18.096 71.9653 17.496C71.9653 16.92 71.9533 16.476 71.9293 16.164C71.8813 15.18 71.5813 14.364 71.0293 13.716C70.4773 13.068 69.6733 12.744 68.6173 12.744C67.4893 12.744 66.6733 13.08 66.1693 13.752C65.6893 14.424 65.4133 15.348 65.3413 16.524C65.3173 16.764 65.3053 17.136 65.3053 17.64C65.3053 18.144 65.3173 18.516 65.3413 18.756C65.4133 19.932 65.6893 20.856 66.1693 21.528C66.6733 22.2 67.4893 22.536 68.6173 22.536ZM83.2282 5.58C82.9642 5.58 82.7482 5.496 82.5802 5.328C82.4122 5.16 82.3282 4.944 82.3282 4.68V1.44C82.3282 1.176 82.4122 0.959999 82.5802 0.791998C82.7482 0.623999 82.9642 0.539999 83.2282 0.539999H87.5482C87.8122 0.539999 88.0282 0.623999 88.1962 0.791998C88.3642 0.959999 88.4482 1.176 88.4482 1.44V4.68C88.4482 4.944 88.3642 5.16 88.1962 5.328C88.0282 5.496 87.8122 5.58 87.5482 5.58H83.2282ZM83.2642 27C83.0002 27 82.7842 26.916 82.6162 26.748C82.4482 26.58 82.3642 26.364 82.3642 26.1V9.18C82.3642 8.916 82.4482 8.7 82.6162 8.532C82.7842 8.364 83.0002 8.28 83.2642 8.28H87.5122C87.7762 8.28 87.9922 8.364 88.1602 8.532C88.3282 8.7 88.4122 8.916 88.4122 9.18V26.1C88.4122 26.34 88.3282 26.556 88.1602 26.748C87.9922 26.916 87.7762 27 87.5122 27H83.2642ZM93.565 27C93.301 27 93.085 26.916 92.917 26.748C92.749 26.58 92.665 26.364 92.665 26.1V9.18C92.665 8.916 92.749 8.7 92.917 8.532C93.085 8.364 93.301 8.28 93.565 8.28H97.705C97.969 8.28 98.185 8.364 98.353 8.532C98.545 8.7 98.641 8.916 98.641 9.18V10.548C99.289 9.756 100.117 9.12 101.125 8.64C102.157 8.16 103.321 7.92 104.617 7.92C106.729 7.92 108.445 8.64 109.765 10.08C111.085 11.496 111.745 13.488 111.745 16.056V26.1C111.745 26.34 111.661 26.556 111.493 26.748C111.325 26.916 111.109 27 110.845 27H106.309C106.069 27 105.853 26.916 105.661 26.748C105.493 26.556 105.409 26.34 105.409 26.1V16.272C105.409 15.144 105.133 14.28 104.581 13.68C104.029 13.056 103.237 12.744 102.205 12.744C101.197 12.744 100.405 13.056 99.829 13.68C99.253 14.28 98.965 15.144 98.965 16.272V26.1C98.965 26.34 98.881 26.556 98.713 26.748C98.545 26.916 98.329 27 98.065 27H93.565Z" fill="white"/>
</svg>
